<svg xmlns="http://www.w3.org/2000/svg" version="1.1" xmlns:xlink="http://www.w3.org/1999/xlink" xmlns:svgjs="http://svgjs.dev/svgjs" width="1500" height="1500" viewBox="0 0 1500 1500"><rect width="1500" height="1500" fill="#ffffff"></rect><g transform="matrix(0.6666666666666666,0,0,0.6666666666666666,249.39436519522388,542.3465311640769)"><svg viewBox="0 0 396 164" data-background-color="#ffffff" preserveAspectRatio="xMidYMid meet" height="621" width="1500" xmlns="http://www.w3.org/2000/svg" xmlns:xlink="http://www.w3.org/1999/xlink"><g id="tight-bounds" transform="matrix(1,0,0,1,0.24008861730862918,0.2590904234611884)"><svg viewBox="0 0 395.52 163.4820475255934" height="163.4820475255934" width="395.52"><g><svg viewBox="0 0 395.52 163.4820475255934" height="163.4820475255934" width="395.52"><g><svg viewBox="0 0 395.52 163.4820475255934" height="163.4820475255934" width="395.52"><g id="textblocktransform"><svg viewBox="0 0 395.52 163.4820475255934" height="163.4820475255934" width="395.52" id="textblock"><g><svg viewBox="0 0 395.52 121.11477106225627" height="121.11477106225627" width="395.52"><path d="M394.594 25.977C392.735 13.405 387.435 9.91 387.435 9.91 371.165-3.039 350.86-0.248 332.619 1.613 300.414 1.688 268.339 4.454 236.208 5.938 168.767 6.164 100.749 2.443 33.643 11.62 27.339 14.436-6.54 12.173 1.121 27.586 3.129 33.998 10.456 41.113 10.232 46.997 11.236 48.028 12.631 45.664 13.226 47.147 15.309 51.145 18.711 49.26 21.501 51.623 17.614 57.934 20.403 63.189 23.062 68.695 18.377 70.129 12.371 69.45 9.675 74.202 9.396 77.646 7.89 76.993 6.235 76.842 5.026 76.741 2.59 77.118 2.999 78.2 4.394 81.896-1.594 84.033 2.162 87.653-0.422 91.576 3.948 94.97 3.353 99.219 3.278 100.074 3.687 100.803 4.338 101.005 7.22 102.086 3.018 104.198 3.464 106.486 33.029 122.125 65.104 111.313 95.394 118.504 103.259 113.476 97.346 120.289 100.489 119.233 102.943 118.001 104.728 123.106 107.499 120.214 107.927 119.384 107.276 117.423 108.8 117.8 109.6 118.001 110.307 117.951 110.418 116.795 110.586 115.06 109.117 116.141 108.726 115.236 112.947 110.66 111.906 121.547 115.866 121.094 115.68 119.761 114.528 117.851 116.889 118.102 119.232 116.191 119.306 114.607 121.389 118.907 121.463 119.837 121.835 120.491 122.43 120.943 128.938 116.267 135.409 122.603 142.233 120.491 146.417 118.177 150.433 121.748 154.672 120.868 156.16 120.164 157.666 118.907 159.098 121.019 176.632 121.471 195.319 119.585 211.943 121.094 256.364 118.278 303.836 122.251 350.674 118.529 361.719 117.096 373.192 115.06 383.958 113.425 383.958 113.425 392.679 108.95 392.679 88.835S394.538 71.235 394.817 55.219C395.096 39.202 396.398 38.548 394.538 25.977Z" opacity="1" fill="#8789fe" data-fill-palette-color="tertiary"></path><g transform="matrix(1,0,0,1,55.76832,26.068561146666667)"><svg width="283.98335999999995" viewBox="-1.05 -28.81 130.34 32.42" height="68.97764876892293" data-palette-color="#ffffff"><path d="M15.55 0.61L15.55 0.61Q11.43 0.61 8.37-0.72 5.32-2.05 3.64-4.86 1.95-7.67 1.95-12.11L1.95-12.11Q1.95-18.77 5.37-22.19 8.79-25.61 14.45-25.61L14.45-25.61Q18.14-25.61 20.69-24.29 23.24-22.97 24.57-20.65 25.9-18.33 25.9-15.36L25.9-15.36Q25.9-12.45 24.41-11.3 22.92-10.16 20.07-10.16L20.07-10.16 9.59-10.16Q9.79-7.64 11.44-6.32 13.09-5 15.92-5L15.92-5Q18.16-5 19.52-5.68 20.87-6.35 21.41-6.74L21.41-6.74Q21.88-7.08 22.46-7.06L22.46-7.06Q22.92-7.06 23.79-6.87 24.66-6.69 25.51-6.2L25.51-6.2Q26.12-5.88 26.12-5.32L26.12-5.32Q26.12-5 26-4.42L26-4.42Q25.93-4.08 25.76-3.43 25.59-2.78 25.32-2.22L25.32-2.22Q25.17-1.95 24.85-1.71L24.85-1.71Q24.37-1.37 23.28-0.81 22.19-0.24 20.31 0.18 18.43 0.61 15.55 0.61ZM9.55-15.16L9.55-15.16 17.5-15.16Q18.75-15.16 18.75-16.31L18.75-16.31Q18.75-18.04 17.66-19.23 16.58-20.41 14.4-20.41L14.4-20.41Q12.04-20.41 10.93-18.9 9.81-17.38 9.55-15.16ZM43.72-25.61L43.72-25.61Q46.63-25.61 47.95-25.13 49.27-24.66 49.61-24.39L49.61-24.39Q50.14-24.05 50.44-23.51L50.44-23.51Q50.61-23.24 50.83-22.58 51.05-21.92 51.14-21.14L51.14-21.14Q51.27-20.53 51.17-20.28 51.07-20.02 50.56-19.65L50.56-19.65Q49.97-19.26 49.28-18.96 48.58-18.65 48.14-18.53L48.14-18.53Q47.78-18.43 47.58-18.48 47.39-18.53 47.04-18.77L47.04-18.77Q46.65-19.04 45.94-19.37 45.24-19.7 43.99-19.7L43.99-19.7Q42.4-19.7 40.98-18.92 39.55-18.14 38.66-16.58 37.77-15.01 37.77-12.67L37.77-12.67Q37.77-9.16 39.61-7.23 41.45-5.3 44.55-5.3L44.55-5.3Q46.14-5.3 47.19-5.63 48.24-5.96 48.85-6.3L48.85-6.3Q49.34-6.57 49.59-6.43 49.85-6.3 50-5.96L50-5.96 51.78-1.93Q52.05-1.29 51.49-1.03L51.49-1.03Q50.58-0.56 48.51 0.02 46.43 0.61 43.38 0.61L43.38 0.61Q37.25 0.61 33.59-2.65 29.93-5.91 29.93-12.4L29.93-12.4Q29.93-16.55 31.61-19.51 33.3-22.46 36.4-24.04 39.5-25.61 43.72-25.61ZM67.74 0.61L67.74 0.61Q61.59 0.61 58-2.66 54.41-5.93 54.41-12.4L54.41-12.4Q54.41-19.04 58.14-22.33 61.86-25.61 68.09-25.61L68.09-25.61Q74.09-25.61 77.7-22.38 81.32-19.14 81.32-12.84L81.32-12.84Q81.32-6.27 77.7-2.83 74.09 0.61 67.74 0.61ZM67.99-5.3L67.99-5.3Q70.67-5.3 72.04-6.97 73.41-8.64 73.41-12.7L73.41-12.7Q73.41-16.55 72.03-18.13 70.65-19.7 67.94-19.7L67.94-19.7Q65.33-19.7 63.83-18.01 62.32-16.31 62.32-12.5L62.32-12.5Q62.32-8.52 63.75-6.91 65.18-5.3 67.99-5.3ZM108.93-22.44L108.93-22.44Q109.83-23.54 111.72-24.57 113.62-25.61 117.06-25.61L117.06-25.61Q121.94-25.61 124.11-23.1 126.29-20.58 126.29-15.55L126.29-15.55 126.29-1.29Q126.29-0.56 125.98-0.28 125.68 0 124.94 0L124.94 0 119.91 0Q119.18 0 118.88-0.28 118.57-0.56 118.57-1.29L118.57-1.29 118.57-14.28Q118.57-17.02 117.57-18.2 116.57-19.38 114.57-19.38L114.57-19.38Q112.79-19.38 111.75-18.59 110.71-17.8 110.27-16.46L110.27-16.46 110.27-1.29Q110.27-0.56 109.97-0.28 109.66 0 108.93 0L108.93 0 103.9 0Q103.17 0 102.86-0.28 102.56-0.56 102.56-1.29L102.56-1.29 102.56-14.28Q102.56-16.94 101.46-18.16 100.36-19.38 98.58-19.38L98.58-19.38Q96.89-19.38 95.87-18.55 94.84-17.72 94.28-16.46L94.28-16.46 94.28-1.29Q94.28-0.56 93.97-0.28 93.67 0 92.94 0L92.94 0 87.91 0Q87.18 0 86.87-0.28 86.56-0.56 86.56-1.29L86.56-1.29 86.56-21.75Q86.56-22.34 86.81-22.66L86.81-22.66Q87.32-23.34 88.04-24.05 88.76-24.76 89.81-25.56L89.81-25.56Q90.13-25.81 90.42-25.81L90.42-25.81Q90.69-25.81 91.03-25.56L91.03-25.56Q92.06-24.76 92.79-24.02 93.52-23.29 94.08-22.51L94.08-22.51 94.21-22.51Q95.04-23.56 96.79-24.58 98.55-25.61 101.82-25.61L101.82-25.61Q104.95-25.61 106.46-24.67 107.98-23.73 108.93-22.44Z" opacity="1" transform="matrix(1,0,0,1,0,0)" fill="#ffffff" class="wordmark-text-0" data-fill-palette-color="quaternary" id="text-0"></path></svg></g></svg></g><g transform="matrix(1,0,0,1,2.5,134.80707191588976)"><svg viewBox="0 0 390.52 28.674975609703644" height="28.674975609703644" width="390.52"><g transform="matrix(1,0,0,1,0,0)"><svg width="390.52" viewBox="-1.0500000000000003 -34.739999999999995 508.86 38.23" height="28.674975609703644" data-palette-color="#8789fe"><path d="M6.1-10.4L6.1-10.4Q6.1-17.97 10.25-19.63L10.25-19.63Q11.33-20.02 12.5-20.02L12.5-20.02Q17.92-20.02 18.8-13.18L18.8-13.18Q18.95-12.01 18.95-10.6L18.95-10.6Q18.95-2.39 14.45-0.98L14.45-0.98Q13.57-0.73 12.65-0.73L12.65-0.73Q7.71-0.73 6.45-6.59L6.45-6.59Q6.1-8.3 6.1-10.4ZM12.65-21.24L12.65-21.24Q7.96-21.24 4.83-18.02L4.83-18.02Q1.95-15.04 1.95-10.6L1.95-10.6Q1.95-4.44 6.45-1.37L6.45-1.37Q9.18 0.49 12.5 0.49L12.5 0.49Q17.19 0.49 20.26-2.83L20.26-2.83Q23.1-5.86 23.1-10.4L23.1-10.4Q23.1-16.55 18.55-19.53L18.55-19.53Q15.87-21.24 12.65-21.24ZM44.78-1.22L44.78-1.22 42.58-1.22 42.58-11.77Q42.73-16.31 45.81-18.31L45.81-18.31Q47.12-19.14 48.49-19.14L48.49-19.14Q51.47-19.14 52.54-16.36L52.54-16.36Q52.98-15.23 52.98-13.82L52.98-13.82 52.98-4.15Q52.98-1.9 51.71-1.46L51.71-1.46Q50.98-1.22 49.32-1.22L49.32-1.22 49.32 0 60.31 0Q60.31-1.07 59.58-1.17L59.58-1.17Q59.38-1.22 59.09-1.22L59.09-1.22 56.65-1.22 56.65-13.33Q56.65-18.21 53.28-20.31L53.28-20.31Q51.71-21.24 49.91-21.24L49.91-21.24Q46.29-21.24 43.95-18.36L43.95-18.36Q43.07-17.24 42.53-15.87L42.53-15.87 42.34-20.75 35.26-20.75 35.26-19.53 38.92-19.53 38.92-4.15Q38.92-1.9 37.65-1.46L37.65-1.46Q36.92-1.22 35.26-1.22L35.26-1.22 35.26 0 46 0Q46-1.07 45.27-1.17L45.27-1.17Q45.07-1.22 44.78-1.22ZM81.85-1.22L81.85-1.22 79.21-1.22 79.21-31.74 71.88-31.74 71.88-30.52 75.55-30.52 75.55-4.15Q75.55-1.9 74.28-1.46L74.28-1.46Q73.55-1.22 71.88-1.22L71.88-1.22 71.88 0 83.07 0Q83.07-1.07 82.33-1.17L82.33-1.17Q82.14-1.22 81.85-1.22ZM104.6-1.22L104.6-1.22 102.16-1.22 102.16-20.75 94.59-20.75 94.59-19.53 98.5-19.53 98.5-4.15Q98.5-1.9 96.99-1.42L96.99-1.42Q96.26-1.22 94.59-1.22L94.59-1.22 94.59 0 105.83 0Q105.83-1.07 105.09-1.17L105.09-1.17Q104.85-1.22 104.6-1.22ZM102.75-27.88L102.75-27.88Q102.75-29.59 101.24-30.32L101.24-30.32Q100.65-30.57 100.11-30.57L100.11-30.57Q98.4-30.57 97.67-29L97.67-29Q97.43-28.47 97.43-27.88L97.43-27.88Q97.43-26.07 99.04-25.39L99.04-25.39Q99.58-25.2 100.11-25.2L100.11-25.2Q101.82-25.2 102.51-26.76L102.51-26.76Q102.75-27.29 102.75-27.88ZM127.02-1.22L127.02-1.22 124.82-1.22 124.82-11.77Q124.97-16.31 128.05-18.31L128.05-18.31Q129.37-19.14 130.73-19.14L130.73-19.14Q133.71-19.14 134.79-16.36L134.79-16.36Q135.22-15.23 135.22-13.82L135.22-13.82 135.22-4.15Q135.22-1.9 133.96-1.46L133.96-1.46Q133.22-1.22 131.56-1.22L131.56-1.22 131.56 0 142.55 0Q142.55-1.07 141.82-1.17L141.82-1.17Q141.62-1.22 141.33-1.22L141.33-1.22 138.89-1.22 138.89-13.33Q138.89-18.21 135.52-20.31L135.52-20.31Q133.96-21.24 132.15-21.24L132.15-21.24Q128.54-21.24 126.19-18.36L126.19-18.36Q125.31-17.24 124.78-15.87L124.78-15.87 124.58-20.75 117.5-20.75 117.5-19.53 121.16-19.53 121.16-4.15Q121.16-1.9 119.89-1.46L119.89-1.46Q119.16-1.22 117.5-1.22L117.5-1.22 117.5 0 128.24 0Q128.24-1.07 127.51-1.17L127.51-1.17Q127.31-1.22 127.02-1.22ZM164.67-20.02L164.67-20.02Q168.09-20.02 169.21-17.14L169.21-17.14Q169.6-16.21 169.6-15.14L169.6-15.14Q169.6-12.7 167.26-12.16L167.26-12.16Q166.04-11.91 163.79-11.96L163.79-11.96 158.62-12.11Q158.86-17.72 162.28-19.43L162.28-19.43Q163.4-20.02 164.67-20.02ZM173.17-4.69L173.17-4.69 171.95-5.13Q170.24-1.42 166.43-0.93L166.43-0.93Q165.94-0.88 165.5-0.88L165.5-0.88Q160.38-0.88 159.06-6.98L159.06-6.98Q158.67-8.69 158.62-10.74L158.62-10.74 164.48-10.64Q170.43-10.55 172.14-11.77L172.14-11.77Q173.46-12.74 173.46-14.55L173.46-14.55Q173.46-17.87 170.09-19.82L170.09-19.82Q167.7-21.24 164.58-21.24L164.58-21.24Q158.47-21.24 155.84-16.16L155.84-16.16Q154.47-13.53 154.47-10.21L154.47-10.21Q154.47-4.15 158.81-1.22L158.81-1.22Q161.4 0.49 164.72 0.49L164.72 0.49Q170 0.49 172.49-3.32L172.49-3.32Q172.88-4 173.17-4.69ZM214.34-20.02L214.34-20.02Q217.76-20.02 218.88-17.14L218.88-17.14Q219.27-16.21 219.27-15.14L219.27-15.14Q219.27-12.7 216.93-12.16L216.93-12.16Q215.71-11.91 213.46-11.96L213.46-11.96 208.29-12.11Q208.53-17.72 211.95-19.43L211.95-19.43Q213.07-20.02 214.34-20.02ZM222.84-4.69L222.84-4.69 221.62-5.13Q219.91-1.42 216.1-0.93L216.1-0.93Q215.61-0.88 215.17-0.88L215.17-0.88Q210.04-0.88 208.73-6.98L208.73-6.98Q208.34-8.69 208.29-10.74L208.29-10.74 214.15-10.64Q220.1-10.55 221.81-11.77L221.81-11.77Q223.13-12.74 223.13-14.55L223.13-14.55Q223.13-17.87 219.76-19.82L219.76-19.82Q217.37-21.24 214.24-21.24L214.24-21.24Q208.14-21.24 205.5-16.16L205.5-16.16Q204.14-13.53 204.14-10.21L204.14-10.21Q204.14-4.15 208.48-1.22L208.48-1.22Q211.07 0.49 214.39 0.49L214.39 0.49Q219.66 0.49 222.15-3.32L222.15-3.32Q222.54-4 222.84-4.69ZM235.54-10.16L235.54-10.16Q235.54-4.25 239.88-1.32L239.88-1.32Q242.57 0.49 245.99 0.49L245.99 0.49Q251.06 0.49 253.65-3.08L253.65-3.08Q254.24-3.91 254.58-4.74L254.58-4.74 253.31-5.18Q251.5-1.32 247.35-0.93L247.35-0.93Q246.96-0.88 246.57-0.88L246.57-0.88Q243.11-0.88 241.15-4.35L241.15-4.35Q239.69-6.98 239.69-10.6L239.69-10.6Q239.69-16.99 243.06-19.14L243.06-19.14Q244.47-20.02 246.18-20.02L246.18-20.02Q248.82-20.02 249.36-17.97L249.36-17.97Q249.45-17.58 249.6-16.75L249.6-16.75Q249.89-14.79 250.67-14.31L250.67-14.31Q251.16-14.06 251.75-14.01L251.75-14.01Q253.41-13.92 253.85-15.38L253.85-15.38Q253.95-15.72 253.95-16.02L253.95-16.02Q253.95-18.51 250.77-20.12L250.77-20.12Q248.53-21.24 245.89-21.24L245.89-21.24Q239.35-21.24 236.76-15.92L236.76-15.92Q235.54-13.38 235.54-10.16ZM269.67-10.4L269.67-10.4Q269.67-17.97 273.82-19.63L273.82-19.63Q274.9-20.02 276.07-20.02L276.07-20.02Q281.49-20.02 282.37-13.18L282.37-13.18Q282.52-12.01 282.52-10.6L282.52-10.6Q282.52-2.39 278.02-0.98L278.02-0.98Q277.14-0.73 276.22-0.73L276.22-0.73Q271.28-0.73 270.02-6.59L270.02-6.59Q269.67-8.3 269.67-10.4ZM276.22-21.24L276.22-21.24Q271.53-21.24 268.4-18.02L268.4-18.02Q265.52-15.04 265.52-10.6L265.52-10.6Q265.52-4.44 270.02-1.37L270.02-1.37Q272.75 0.49 276.07 0.49L276.07 0.49Q280.76 0.49 283.83-2.83L283.83-2.83Q286.67-5.86 286.67-10.4L286.67-10.4Q286.67-16.55 282.12-19.53L282.12-19.53Q279.44-21.24 276.22-21.24ZM308.35-1.22L308.35-1.22 306.15-1.22 306.15-11.77Q306.3-16.06 309.13-18.16L309.13-18.16Q310.45-19.14 311.77-19.14L311.77-19.14Q314.21-19.14 315.14-16.46L315.14-16.46Q315.53-15.28 315.53-13.82L315.53-13.82 315.53-4.15Q315.53-1.9 314.45-1.46L314.45-1.46Q313.77-1.22 312.11-1.22L312.11-1.22 312.11 0 322.61 0Q322.61-1.07 321.88-1.17L321.88-1.17Q321.68-1.22 321.39-1.22L321.39-1.22 319.19-1.22 319.19-13.33 319.19-13.72Q319.97-17.29 322.66-18.7L322.66-18.7Q323.68-19.19 324.61-19.19L324.61-19.19Q327.1-19.19 328.13-16.6L328.13-16.6Q328.61-15.38 328.61-13.82L328.61-13.82 328.61-4.15Q328.61-1.9 327.54-1.46L327.54-1.46Q326.86-1.22 325.2-1.22L325.2-1.22 325.2 0 335.99 0Q335.99-1.07 335.25-1.17L335.25-1.17Q335.06-1.22 334.77-1.22L334.77-1.22 332.28-1.22 332.28-13.33Q332.28-18.36 329-20.36L329-20.36Q327.54-21.24 325.83-21.24L325.83-21.24Q322.12-21.24 319.87-17.77L319.87-17.77Q319.29-16.89 318.9-15.92L318.9-15.92Q318.02-19.78 315.04-20.9L315.04-20.9Q314.16-21.24 313.23-21.24L313.23-21.24Q309.72-21.24 307.42-18.26L307.42-18.26Q306.59-17.19 306.1-15.87L306.1-15.87 305.91-20.75 298.83-20.75 298.83-19.53 302.49-19.53 302.49-4.15Q302.49-1.9 301.22-1.46L301.22-1.46Q300.49-1.22 298.83-1.22L298.83-1.22 298.83 0 309.57 0Q309.57-1.03 308.84-1.17L308.84-1.17Q308.59-1.22 308.35-1.22ZM356.94-1.22L356.94-1.22 354.74-1.22 354.74-11.77Q354.89-16.06 357.72-18.16L357.72-18.16Q359.04-19.14 360.36-19.14L360.36-19.14Q362.8-19.14 363.73-16.46L363.73-16.46Q364.12-15.28 364.12-13.82L364.12-13.82 364.12-4.15Q364.12-1.9 363.04-1.46L363.04-1.46Q362.36-1.22 360.7-1.22L360.7-1.22 360.7 0 371.2 0Q371.2-1.07 370.46-1.17L370.46-1.17Q370.27-1.22 369.98-1.22L369.98-1.22 367.78-1.22 367.78-13.33 367.78-13.72Q368.56-17.29 371.25-18.7L371.25-18.7Q372.27-19.19 373.2-19.19L373.2-19.19Q375.69-19.19 376.71-16.6L376.71-16.6Q377.2-15.38 377.2-13.82L377.2-13.82 377.2-4.15Q377.2-1.9 376.13-1.46L376.13-1.46Q375.44-1.22 373.78-1.22L373.78-1.22 373.78 0 384.58 0Q384.58-1.07 383.84-1.17L383.84-1.17Q383.65-1.22 383.36-1.22L383.36-1.22 380.86-1.22 380.86-13.33Q380.86-18.36 377.59-20.36L377.59-20.36Q376.13-21.24 374.42-21.24L374.42-21.24Q370.71-21.24 368.46-17.77L368.46-17.77Q367.88-16.89 367.49-15.92L367.49-15.92Q366.61-19.78 363.63-20.9L363.63-20.9Q362.75-21.24 361.82-21.24L361.82-21.24Q358.31-21.24 356.01-18.26L356.01-18.26Q355.18-17.19 354.69-15.87L354.69-15.87 354.5-20.75 347.42-20.75 347.42-19.53 351.08-19.53 351.08-4.15Q351.08-1.9 349.81-1.46L349.81-1.46Q349.08-1.22 347.42-1.22L347.42-1.22 347.42 0 358.16 0Q358.16-1.03 357.43-1.17L357.43-1.17Q357.18-1.22 356.94-1.22ZM406.7-20.02L406.7-20.02Q410.12-20.02 411.24-17.14L411.24-17.14Q411.63-16.21 411.63-15.14L411.63-15.14Q411.63-12.7 409.29-12.16L409.29-12.16Q408.07-11.91 405.82-11.96L405.82-11.96 400.65-12.11Q400.89-17.72 404.31-19.43L404.31-19.43Q405.43-20.02 406.7-20.02ZM415.2-4.69L415.2-4.69 413.98-5.13Q412.27-1.42 408.46-0.93L408.46-0.93Q407.97-0.88 407.53-0.88L407.53-0.88Q402.4-0.88 401.08-6.98L401.08-6.98Q400.69-8.69 400.65-10.74L400.65-10.74 406.5-10.64Q412.46-10.55 414.17-11.77L414.17-11.77Q415.49-12.74 415.49-14.55L415.49-14.55Q415.49-17.87 412.12-19.82L412.12-19.82Q409.73-21.24 406.6-21.24L406.6-21.24Q400.5-21.24 397.86-16.16L397.86-16.16Q396.49-13.53 396.49-10.21L396.49-10.21Q396.49-4.15 400.84-1.22L400.84-1.22Q403.43 0.49 406.75 0.49L406.75 0.49Q412.02 0.49 414.51-3.32L414.51-3.32Q414.9-4 415.2-4.69ZM438.35-1.22L438.35-1.22 434.83-1.22 434.83-10.94Q434.83-15.38 437.56-18.07L437.56-18.07Q438.64-19.09 439.37-19.14L439.37-19.14Q440.2-19.14 440.88-17.92L440.88-17.92Q441.67-16.55 442.35-16.36L442.35-16.36Q442.64-16.26 442.94-16.26L442.94-16.26Q444.4-16.26 444.79-17.68L444.79-17.68Q444.89-17.97 444.89-18.26L444.89-18.26Q444.89-20.46 442.64-20.95L442.64-20.95Q442.15-21.04 441.71-21.04L441.71-21.04Q438.78-21.04 436.49-18.55L436.49-18.55Q435.42-17.38 434.78-15.92L434.78-15.92 434.59-20.75 427.51-20.75 427.51-19.53 431.17-19.53 431.17-4.15Q431.17-1.9 429.9-1.46L429.9-1.46Q429.17-1.22 427.51-1.22L427.51-1.22 427.51 0 439.57 0Q439.57-1.07 438.83-1.17L438.83-1.17Q438.64-1.22 438.35-1.22ZM455.83-10.16L455.83-10.16Q455.83-4.25 460.18-1.32L460.18-1.32Q462.86 0.49 466.28 0.49L466.28 0.49Q471.36 0.49 473.95-3.08L473.95-3.08Q474.53-3.91 474.87-4.74L474.87-4.74 473.6-5.18Q471.8-1.32 467.65-0.93L467.65-0.93Q467.26-0.88 466.87-0.88L466.87-0.88Q463.4-0.88 461.45-4.35L461.45-4.35Q459.98-6.98 459.98-10.6L459.98-10.6Q459.98-16.99 463.35-19.14L463.35-19.14Q464.77-20.02 466.48-20.02L466.48-20.02Q469.11-20.02 469.65-17.97L469.65-17.97Q469.75-17.58 469.89-16.75L469.89-16.75Q470.19-14.79 470.97-14.31L470.97-14.31Q471.46-14.06 472.04-14.01L472.04-14.01Q473.7-13.92 474.14-15.38L474.14-15.38Q474.24-15.72 474.24-16.02L474.24-16.02Q474.24-18.51 471.07-20.12L471.07-20.12Q468.82-21.24 466.18-21.24L466.18-21.24Q459.64-21.24 457.05-15.92L457.05-15.92Q455.83-13.38 455.83-10.16ZM496.02-20.02L496.02-20.02Q499.44-20.02 500.56-17.14L500.56-17.14Q500.95-16.21 500.95-15.14L500.95-15.14Q500.95-12.7 498.61-12.16L498.61-12.16Q497.39-11.91 495.14-11.96L495.14-11.96 489.97-12.11Q490.21-17.72 493.63-19.43L493.63-19.43Q494.75-20.02 496.02-20.02ZM504.52-4.69L504.52-4.69 503.3-5.13Q501.59-1.42 497.78-0.93L497.78-0.93Q497.29-0.88 496.85-0.88L496.85-0.88Q491.72-0.88 490.41-6.98L490.41-6.98Q490.02-8.69 489.97-10.74L489.97-10.74 495.83-10.64Q501.78-10.55 503.49-11.77L503.49-11.77Q504.81-12.74 504.81-14.55L504.81-14.55Q504.81-17.87 501.44-19.82L501.44-19.82Q499.05-21.24 495.92-21.24L495.92-21.24Q489.82-21.24 487.18-16.16L487.18-16.16Q485.82-13.53 485.82-10.21L485.82-10.21Q485.82-4.15 490.16-1.22L490.16-1.22Q492.75 0.49 496.07 0.49L496.07 0.49Q501.34 0.49 503.83-3.32L503.83-3.32Q504.22-4 504.52-4.69Z" opacity="1" transform="matrix(1,0,0,1,0,0)" fill="#8789fe" class="slogan-text-1" data-fill-palette-color="secondary" id="text-1"></path></svg></g></svg></g></svg></g></svg></g></svg></g><defs></defs></svg><rect width="395.52" height="163.4820475255934" fill="none" stroke="none" visibility="hidden"></rect></g></svg></g></svg>